/* XPM */
static char *result[] = {
/* columns rows colors chars-per-pixel */
"32 32 101 2 ",
"   c #58664B",
".  c #5A684D",
"X  c #5B684D",
"o  c #5C6A4E",
"O  c #5D6A50",
"+  c #5E6A50",
"@  c #5F6B51",
"#  c #657156",
"$  c #667257",
"%  c #67735A",
"&  c #69755B",
"*  c #6B775D",
"=  c #6D785F",
"-  c #707A61",
";  c #727C63",
":  c #737C64",
">  c #747E65",
",  c #788068",
"<  c #7A8269",
"1  c #7E866D",
"2  c #80886F",
"3  c #818971",
"4  c #838A72",
"5  c #848B73",
"6  c #90957E",
"7  c #969982",
"8  c #989C85",
"9  c #999C86",
"0  c #9B9E87",
"q  c #9B9E88",
"w  c #9C9F89",
"e  c #9C9F8A",
"r  c #9DA08B",
"t  c #A1A48E",
"y  c #A5A691",
"u  c #A8A995",
"i  c #A9AA95",
"p  c #ABAC96",
"a  c #AFAE9A",
"s  c #B4B39E",
"d  c #B9B7A5",
"f  c #BBB9A5",
"g  c #BCBAA6",
"h  c #BCBAA7",
"j  c #BEBCA8",
"k  c #BFBCAA",
"l  c #C2BFAC",
"z  c #C3BFAC",
"x  c #C3C0AD",
"c  c #C6C2AF",
"v  c #C6C2B0",
"b  c #C6C3B0",
"n  c #C8C3B1",
"m  c #C8C4B1",
"M  c #CAC5B3",
"N  c #CBC6B3",
"B  c #CDC8B6",
"V  c #CECAB7",
"C  c #D1CBBA",
"Z  c #D1CCBA",
"A  c #D3CDBC",
"S  c #D4CEBD",
"D  c #D7D1C0",
"F  c #D9D3C1",
"G  c #DAD3C1",
"H  c #E0D9C7",
"J  c #E3DBCB",
"K  c #E4DBCB",
"L  c #E4DCCB",
"P  c #E6DCCC",
"I  c #E6DDCD",
"U  c #E8DECE",
"Y  c #EBE1D1",
"T  c #ECE2D3",
"R  c #EDE3D3",
"E  c #EDE4D4",
"W  c #EFE4D5",
"Q  c #EFE5D5",
"!  c #F0E6D6",
"~  c #F0E6D7",
"^  c #F1E7D8",
"/  c #F4E9D9",
"(  c #F4E9DA",
")  c #F5E9DB",
"_  c #F7EBDC",
"`  c #F8ECDD",
"'  c #F9ECDD",
"]  c #F9EDDD",
"[  c #FAEDDD",
"{  c #F8ECDE",
"}  c #F9ECDE",
"|  c #F8EDDE",
" . c #F9EDDE",
".. c #F9ECDF",
"X. c #F9EDDF",
"o. c #FAEDDE",
"O. c #FAEDDF",
"+. c #F9EEDE",
"@. c #F9EEDF",
"#. c #FAEEDE",
"$. c None",
/* pixels */
"$.$.$.$.$.$.$.$.$.$.$.$.$.$.#. . .#.$.$.$.$.$.$.$.$.$.$.$.$.$.$.",
"$.$.$.$.$.$.$.$.$.$.+. . . . . . . . . . .+.$.$.$.$.$.$.$.$.$.$.",
"$.$.$.$.$.$.$.$.@. . . . . . . . . . . . . . . .$.$.$.$.$.$.$.$.",
"$.$.$.$.$.$.$. . . . . . . . . . . . . . . . . . .$.$.$.$.$.$.$.",
"$.$.$.$.$.X. . . . . . . . . . . . . . . . . . . . .] $.$.$.$.$.",
"$.$.$.$. . . . . . . . . . . . . .` /  . . . . . . . . .$.$.$.$.",
"$.$.$.$. . . . . . . . . . . . . .i 1  . . . . . . . . .$.$.$.$.",
"$.$.$. . . . . . . . . . . . . . .: =  . . . . . . . . . .$.$.$.",
"$.$. . . . . . . . . . . . .a !  .$ 6  . . . . . . . . . . .$.$.",
"$.$. . . . . . . . . . . . .e 8  .o c  . . . . . . . . . . .$.$.",
"$. . . . . . . . . . . . . .S + E : _ R K  . . . . . . . . .X.$.",
"$. . . . . . . . . . ._ ~  . .> v h 9 . @ _  . . . . . . . . .$.",
"$. . . . . . . . . . .g O B  .s i < X 4 Z  . . . . . . . . . .$.",
"$. . . . . . . . . . .^ ; = _ J 3 l Q  . . . . . . . . . . . .$.",
"O. . . . . . . . . . . .I * M n _ K 0 - F  . . . . . . . . . .[ ",
"]  . . . . . . .T w U  . .K q d 7 % 5 M  . . . . . . . . . . . .",
"}  . . . . . . .P o % H  . .f b (  . . . . . . . . . . . . . ...",
"o. . . . . . . . .N $ & K  .l  .) M y r G  . . . . . . . . . .o.",
"$. . . . . . . . . .W t , L V p #       2  . . . . . . . . . .$.",
"$. . . . . . . . . . . .P w u g x x j k Y  . . . . . . . . . .$.",
"$. . . . . . . . . . . . .z  . . . . . . . . . . . . . . . . .$.",
"$. . . . . . . . . . . . .m  . . . . . . . . . . . . . . . . .$.",
"$.$. . . . . . . . . . . .C  . . . . . . . . . . . . . . . .$.$.",
"$.$.|  . . . . . . . . . .A  . . . . . . . . . . . . . . .| $.$.",
"$.$.$. . . . . . . . . ._ D  . . . . . . . . . . . . . . .$.$.$.",
"$.$.$.$. . . . . . . . .` K  . . . . . . . . . . . . . .$.$.$.$.",
"$.$.$.$.|  . . . . . . . . . . . . . . . . . . . . . .} $.$.$.$.",
"$.$.$.$.$.X. . . . . . . . . . . . . . . . . . . . .X.$.$.$.$.$.",
"$.$.$.$.$.$.$. . . . . . . . . . . . . . . . . . .$.$.$.$.$.$.$.",
"$.$.$.$.$.$.$.$.{  . . . . . . . . . . . . . .#.$.$.$.$.$.$.$.$.",
"$.$.$.$.$.$.$.$.$.$... . . . . . . . . . ...$.$.$.$.$.$.$.$.$.$.",
"$.$.$.$.$.$.$.$.$.$.$.$.$.$.' +.+.' $.$.$.$.$.$.$.$.$.$.$.$.$.$."
};
