/* XPM */
static char *_c35aa4131144273997beec7a9da2bd8hzgnVDgIbURbr4Uj[] = {
/* columns rows colors chars-per-pixel */
"64 64 162 2 ",
"   c None",
".  c #58664B",
"X  c #59674C",
"o  c #5A684D",
"O  c #5B684D",
"+  c #5C6A4E",
"@  c #5D6A4F",
"#  c #5D6A50",
"$  c #5E6A50",
"%  c #5F6C52",
"&  c #606C51",
"*  c #616D52",
"=  c #626E54",
"-  c #626F54",
";  c #636F55",
":  c #647056",
">  c #667257",
",  c #657158",
"<  c #68745A",
"1  c #69745B",
"2  c #69755B",
"3  c #6A765C",
"4  c #6B775D",
"5  c #6C775E",
"6  c #6D785E",
"7  c #6F795F",
"8  c #6F7960",
"9  c #717B62",
"0  c #737C64",
"q  c #747E65",
"w  c #767F66",
"e  c #778068",
"r  c #788168",
"t  c #7A8269",
"y  c #7A826A",
"u  c #7D856C",
"i  c #7E856D",
"p  c #7F876E",
"a  c #80876F",
"s  c #818971",
"d  c #838A72",
"f  c #868D76",
"g  c #878E76",
"h  c #888F77",
"j  c #898F78",
"k  c #8A9078",
"l  c #8B9079",
"z  c #8B927A",
"x  c #8C927B",
"c  c #8E937C",
"v  c #8E947D",
"b  c #8F947D",
"n  c #90957E",
"m  c #929781",
"M  c #949882",
"N  c #959983",
"B  c #969982",
"V  c #979B85",
"C  c #9B9F88",
"Z  c #9B9E89",
"A  c #9C9F89",
"S  c #9CA089",
"D  c #9DA08A",
"F  c #9EA18B",
"G  c #9EA18C",
"H  c #9FA28C",
"J  c #A2A58F",
"K  c #A4A690",
"L  c #A5A691",
"P  c #A6A792",
"I  c #A6A793",
"U  c #A7A893",
"Y  c #A8A994",
"T  c #A8A995",
"R  c #A9AA94",
"E  c #AAAB96",
"W  c #ABAC96",
"Q  c #ABAC97",
"!  c #ACAD98",
"~  c #AFAE9A",
"^  c #AFAF9A",
"/  c #B0AF9B",
"(  c #B1B19D",
")  c #B3B29D",
"_  c #B3B29E",
"`  c #B6B4A1",
"'  c #B7B6A2",
"]  c #B8B7A3",
"[  c #B9B7A4",
"{  c #BAB8A4",
"}  c #BAB9A5",
"|  c #BDBBA7",
" . c #BDBCA8",
".. c #BEBCA8",
"X. c #BFBCA9",
"o. c #C0BDAA",
"O. c #C1BEAB",
"+. c #C2BFAC",
"@. c #C3C0AD",
"#. c #C5C2AF",
"$. c #C7C3B0",
"%. c #C8C4B1",
"&. c #CBC6B3",
"*. c #CBC6B4",
"=. c #CCC7B4",
"-. c #CDC8B6",
";. c #CEC9B7",
":. c #D0CBB8",
">. c #D1CBBA",
",. c #D1CCB9",
"<. c #D1CCBA",
"1. c #D3CDBC",
"2. c #D3CEBC",
"3. c #D4CEBD",
"4. c #D5CFBD",
"5. c #D6D0BE",
"6. c #D7D1BF",
"7. c #D8D2C0",
"8. c #D9D2C1",
"9. c #DAD3C1",
"0. c #DBD3C2",
"q. c #DDD6C5",
"w. c #DED6C6",
"e. c #E0D8C7",
"r. c #E1D9C8",
"t. c #E5DCCB",
"y. c #E6DCCC",
"u. c #E8DFCE",
"i. c #E9DFCF",
"p. c #EAE0CF",
"a. c #EBE1D2",
"s. c #ECE2D1",
"d. c #ECE2D3",
"f. c #EDE3D3",
"g. c #EFE4D5",
"h. c #EFE5D5",
"j. c #EFE6D6",
"k. c #F0E6D6",
"l. c #F0E6D7",
"z. c #F2E7D7",
"x. c #F1E7D8",
"c. c #F2E8D8",
"v. c #F3E9D9",
"b. c #F4E9D9",
"n. c #F4E9DA",
"m. c #F5E9DB",
"M. c #F6EADB",
"N. c #F6EBDC",
"B. c #F7EBDC",
"V. c #F8ECDD",
"C. c #F9ECDD",
"Z. c #F9EDDD",
"A. c #F9EEDD",
"S. c #F8ECDE",
"D. c #F9ECDE",
"F. c #F8EDDE",
"G. c #F9EDDE",
"H. c #F9EDDF",
"J. c #FAEDDE",
"K. c #FAEDDF",
"L. c #F9EEDE",
"P. c #FAEEDE",
/* pixels */
"                                                                                                                                ",
"                                                  J.J.J.F.J.J.J.J.J.F.J.J.J.K.                                                  ",
"                                          F.J.F.J.F.J.F.J.F.J.F.J.F.J.F.J.F.J.J.J.F.F.                                          ",
"                                      J.J.J.F.J.F.J.F.J.F.J.F.J.F.J.F.J.F.J.F.J.F.J.J.F.J.                                      ",
"                                  J.J.F.J.F.J.F.J.F.J.F.J.F.J.F.J.F.J.F.J.F.J.F.F.J.F.J.F.J.J.                                  ",
"                              J.F.J.F.J.F.J.F.J.F.J.F.J.F.J.F.J.F.J.F.J.F.J.F.J.J.F.J.F.J.F.J.J.J.                              ",
"                            J.J.J.F.J.F.J.F.J.F.J.F.J.F.J.F.J.F.J.F.J.F.J.F.J.F.F.J.F.J.F.J.J.F.J.F.                            ",
"                        J.J.F.J.F.J.F.J.F.J.F.J.F.J.F.J.F.J.F.J.F.J.F.J.F.J.F.J.J.F.J.F.J.F.F.J.J.J.J.J.                        ",
"                      J.J.F.J.F.J.F.J.F.J.F.J.F.J.F.J.F.J.F.J.F.J.F.J.F.J.F.J.F.J.F.J.F.J.F.J.F.F.J.F.J.J.                      ",
"                    F.J.F.J.F.J.F.J.F.J.F.J.F.J.F.J.F.J.F.J.F.J.F.J.F.J.F.J.F.J.F.J.F.J.F.J.F.J.J.F.J.F.J.J.                    ",
"                  J.J.F.J.F.J.F.J.F.J.F.J.F.J.F.J.F.J.F.J.F.J.F.J.F.J.F.J.F.F.J.J.F.J.F.J.F.J.F.F.J.F.J.F.J.F.                  ",
"                J.J.F.J.F.J.F.J.F.J.F.J.F.J.F.J.F.J.F.J.F.J.F.J.F.J.J.N.t.F.J.F.F.J.F.J.F.J.F.J.J.F.J.F.J.F.J.F.                ",
"              J.J.F.J.F.J.F.J.F.J.F.J.F.J.F.J.F.J.F.J.F.J.F.J.F.J.F.J.h . ] F.J.J.F.J.F.J.F.J.F.F.J.F.J.J.F.J.F.J.              ",
"              J.F.J.F.J.F.J.F.J.F.J.F.J.F.J.F.J.F.J.F.J.F.J.F.J.F.J.=.. . u J.F.F.J.F.J.F.J.F.J.J.F.J.F.F.J.F.J.J.              ",
"            J.F.J.F.J.F.J.F.J.F.J.F.J.F.J.F.J.F.J.F.J.F.J.F.J.F.J.F.Z . . 8 J.J.J.F.J.F.J.F.J.F.F.J.F.J.J.F.J.F.J.F.            ",
"          J.F.J.F.J.F.J.F.J.F.J.F.J.F.J.F.J.F.J.F.J.F.J.F.J.F.J.F.J.p . . d J.F.F.J.F.J.F.J.F.J.J.F.J.F.F.J.F.J.F.J.J.          ",
"          J.F.J.J.F.J.F.J.F.J.F.J.F.J.F.J.F.J.F.F.J.F.J.1.1.J.F.J.J.8 . * Y J.F.F.J.F.J.F.J.F.J.F.J.F.J.F.J.F.J.F.J.F.          ",
"        J.J.J.F.F.J.F.J.F.J.F.J.F.J.F.J.F.J.F.J.J.F.J.F.` # 5.J.F.J.2 . % :.F.J.J.F.J.F.J.F.J.F.J.F.J.F.J.F.J.F.J.F.J.F.        ",
"        F.J.F.J.J.F.J.F.J.F.J.F.J.F.J.F.J.F.J.F.F.J.F.J.<.X 2 v.J.F.: . 9 F.J.F.F.J.F.J.F.J.F.J.F.J.F.J.F.J.F.J.F.J.F.J.        ",
"      J.J.F.J.F.F.J.F.J.F.J.F.J.F.J.F.J.F.J.F.J.J.F.J.F.j.o . W F.J.@ . ( J.F.J.J.F.J.F.J.F.J.F.J.F.J.F.J.F.J.F.J.F.J.F.J.      ",
"      F.F.J.F.J.J.F.J.F.J.F.J.F.F.J.F.J.J.F.J.F.F.J.F.J.J.b . 6 N.m.. 2 j.J.J.F.F.J.F.J.F.J.F.J.F.J.F.J.F.J.F.J.F.J.F.J.J.      ",
"    J.J.J.F.J.F.F.J.F.J.F.J.F.J.J.F.J.F.F.J.F.J.J.F.J.F.J.<.. . r.d.. ~ J.J.g.*.[ 7.J.F.J.F.J.F.J.F.J.F.J.F.J.F.J.F.J.F.J.J.    ",
"    J.F.F.J.F.J.J.F.J.F.J.F.J.F.F.J.F.J.F.J.J.F.F.J.F.J.J.F.9 . o.8.: v.j.G # . . = v.F.F.J.F.J.F.J.F.J.F.J.F.J.F.J.F.J.J.F.    ",
"    J.F.J.F.J.F.F.J.F.J.F.J.F.J.J.F.J.F.J.F.J.j.<.v.J.F.J.F.( . ) ] ( r.0 . X . . = N.F.J.F.J.F.J.F.J.F.J.F.J.F.J.F.J.F.J.J.    ",
"    J.J.J.F.J.F.J.F.J.F.J.F.J.F.F.J.F.J.F.J.F.u . 4 q.J.J.F.d.# ) M #.= . . . . 0 5.F.J.F.J.F.J.F.J.F.J.F.J.F.J.F.J.F.J.F.J.    ",
"  J.F.J.F.J.F.J.F.J.F.J.F.J.F.J.J.F.J.F.J.F.J.p . . 4 x.F.J.J.z L b o . . : b #.N.J.J.F.J.F.J.F.J.F.J.F.J.F.J.F.J.F.J.F.J.F.J.  ",
"  F.J.F.J.F.J.F.J.F.J.F.J.F.J.F.F.J.F.J.F.J.J.8.o . . Y J.F.J.@.q . 9 J <.N.J.J.J.F.J.F.F.J.F.J.F.J.F.J.F.J.F.J.F.J.F.J.F.J.J.  ",
"  J.F.J.F.J.F.J.F.J.F.J.F.J.F.J.J.F.J.F.J.F.J.F.} . . = x.J.F.1.2 <.J.J.F.J.F.J.F.J.F.J.J.F.J.F.J.F.J.F.J.F.J.F.J.F.J.F.J.J.J.  ",
"  J.J.F.J.F.J.F.J.F.J.F.J.F.J.F.F.J.J.F.J.F.F.J.J.! . . } F.J.S j.J.J.J.j.' f 0 ] J.J.F.F.J.F.J.F.J.F.J.F.J.F.J.F.J.F.J.F.J.F.  ",
"  J.F.J.F.J.F.J.F.J.F.J.F.J.F.J.J.F.F.J.F.J.J.F.F.J.K . e J.q.W F.F.p.K : . . X ^ F.F.J.J.F.J.F.J.F.J.F.J.F.J.F.J.F.J.F.J.F.J.  ",
"  J.J.F.J.F.J.F.J.F.J.F.J.F.J.F.F.F.:.r.J.J.F.J.J.F.J.Y . 8.Z d.d.S # . . . 4 $.F.J.F.J.F.J.F.J.F.J.F.J.F.J.F.J.F.J.F.J.F.J.J.  ",
"  J.F.J.F.J.F.J.F.J.F.J.F.J.F.J.J. .. o Y F.J.F.F.J.F.J.U m S Y * o < t b  .m.J.J.F.J.F.J.F.J.F.J.F.J.F.J.F.J.F.J.F.J.F.J.J.J.  ",
"  J.F.J.F.J.F.J.F.J.F.J.F.J.F.J.J.' . . . M N.J.J.F.J.F.F.d z +.p.F.F.J.F.J.F.J.J.F.J.F.J.F.J.F.J.F.J.F.J.F.J.F.J.F.J.F.J.F.J.  ",
"  F.J.F.J.F.J.F.J.F.J.F.J.F.J.F.J.d.: X . . n N.F.J.F.J.N.b F.J.J.F.J.F.J.F.J.F.F.J.F.J.F.J.F.J.F.J.F.J.F.J.F.J.F.J.F.J.F.J.J.  ",
"  J.F.J.F.J.F.J.F.J.F.J.F.J.F.J.F.J.9.2 X . . M N.J.J.F.$.} J.F.F.J.F.J.v.8.7.i.J.J.J.F.J.F.J.F.J.F.J.F.J.F.J.F.J.F.J.F.F.J.J.  ",
"  J.J.F.J.F.J.F.J.F.J.F.J.F.J.F.J.F.J.d.x . . . L J.F.J.V j.F.J.J.t.E t X . . X f j.F.J.F.J.F.J.F.J.F.J.F.J.F.J.F.J.F.J.J.J.J.  ",
"  J.J.F.F.J.F.J.F.J.F.J.F.J.F.J.F.J.F.J.F.;.r . X X.J.N.S J.J.5.f X . . . . . . . G J.F.F.J.F.J.J.F.J.F.J.F.J.F.J.F.J.F.F.J.F.  ",
"  J.F.J.J.F.J.F.J.F.J.F.J.F.J.F.J.F.J.F.J.F.J.@.5 # 3.*.*.1.d . X . . . . . . . X ~ J.J.J.F.J.F.F.J.F.J.F.J.F.J.F.J.F.J.J.F.J.  ",
"  J.J.F.F.J.F.J.F.J.F.J.F.J.F.J.F.J.F.J.F.J.F.J.m.~ q z z = u d v x v v f p u v  .N.F.J.F.J.F.J.J.F.J.F.J.F.J.F.J.F.J.F.J.J.J.  ",
"    F.J.J.F.J.F.J.F.J.F.J.F.J.F.J.F.J.F.J.F.J.F.J.J.v.q *.F.K.F.J.J.F.J.K.J.J.J.J.F.J.F.J.F.J.F.F.J.F.J.F.J.F.J.F.J.F.J.F.J.    ",
"    J.F.J.F.J.F.F.J.F.J.F.J.F.J.F.J.F.J.F.J.F.J.F.J.t.! F.J.F.J.J.J.F.J.F.J.F.J.F.J.F.J.F.J.F.J.F.J.F.J.F.J.F.J.J.F.J.F.J.F.    ",
"    F.J.F.J.F.J.J.F.J.F.J.F.J.F.J.F.J.F.J.F.J.F.J.F.X.:.J.F.J.F.J.F.J.F.J.F.J.F.J.F.J.F.J.F.J.F.J.F.J.F.J.F.J.F.F.J.F.J.F.J.    ",
"    J.J.J.F.J.F.F.J.F.J.F.J.F.J.F.J.F.J.F.J.F.J.F.J.L d.F.J.F.J.F.J.F.J.F.J.F.J.F.J.F.J.F.J.F.J.F.J.F.J.F.J.F.J.J.F.J.F.J.J.    ",
"      J.F.J.F.J.J.F.J.F.J.F.J.F.J.F.J.F.J.F.J.F.J.J.Z J.J.F.J.F.J.F.J.F.J.F.J.F.J.F.J.F.J.F.J.F.J.F.J.F.J.F.J.F.F.J.F.J.J.      ",
"      J.J.F.J.F.F.J.F.J.F.J.F.J.F.J.F.J.F.J.F.J.F.J.K F.F.J.F.J.F.J.F.J.F.J.F.J.F.J.F.J.F.J.F.J.F.J.F.J.F.J.F.J.F.J.F.J.F.      ",
"        F.J.F.J.J.F.J.F.J.F.J.F.J.F.J.F.J.F.J.F.J.F.Y J.J.F.J.F.J.F.J.F.J.F.J.F.J.F.J.F.J.F.J.F.J.F.J.F.J.F.J.F.J.F.J.F.        ",
"        J.F.J.F.F.J.F.J.F.J.F.J.F.J.F.J.F.J.F.J.F.J.! J.F.J.F.J.F.J.F.J.F.J.F.J.F.J.F.J.F.J.F.J.F.J.F.J.F.J.F.J.F.J.J.J.        ",
"          J.F.J.J.F.J.F.J.F.J.F.J.F.J.F.J.F.J.F.F.F.' F.J.F.J.F.J.F.J.F.J.F.J.F.J.F.J.F.J.F.J.F.J.F.J.F.J.F.J.F.J.F.J.          ",
"          J.J.F.J.F.J.F.J.F.J.F.F.J.F.J.F.J.F.J.F.v.X.J.F.J.F.J.J.F.J.F.J.F.J.F.J.F.J.F.J.F.J.F.F.J.F.J.F.J.F.J.F.J.J.          ",
"            F.J.F.J.F.J.F.J.F.J.J.F.J.F.J.F.J.F.J.v.$.J.J.F.J.F.F.J.F.J.F.J.F.J.F.J.F.J.F.J.F.J.J.F.J.F.J.F.J.F.J.F.            ",
"              J.J.F.J.F.J.F.J.F.F.J.F.J.F.J.F.J.J.n.=.K.F.J.F.J.J.F.J.F.J.F.J.F.J.F.J.F.J.F.J.F.F.J.F.J.F.J.F.J.F.              ",
"              J.F.J.F.J.F.J.F.J.J.F.J.F.J.F.J.F.F.F.7.H.J.F.J.F.F.J.F.J.F.J.F.J.F.J.F.J.F.J.F.J.J.F.J.F.J.F.J.F.J.              ",
"                F.J.J.F.J.F.J.F.F.J.F.J.F.J.F.J.J.F.F.J.F.J.F.J.J.F.J.F.J.F.J.F.J.F.J.F.J.F.J.F.F.J.F.J.F.J.J.J.                ",
"                  F.F.J.F.J.F.J.J.F.J.F.J.F.J.F.F.J.F.J.J.F.J.F.F.J.F.J.F.J.F.J.F.J.F.J.F.J.F.J.J.F.J.F.J.F.J.                  ",
"                    F.J.J.F.J.F.F.J.F.J.F.J.F.J.J.F.J.F.F.J.F.J.J.F.J.F.J.F.J.F.J.F.J.F.J.F.J.F.F.J.F.J.F.F.                    ",
"                      J.F.J.F.J.J.F.J.F.J.F.J.F.F.J.F.J.J.F.J.F.F.J.F.J.F.J.F.J.F.J.F.J.F.J.F.J.J.F.J.F.J.                      ",
"                        J.J.J.J.F.J.F.J.F.J.F.J.J.F.J.F.J.F.J.F.J.F.J.F.J.F.J.F.J.F.J.F.J.F.J.F.J.F.J.J.                        ",
"                            J.F.J.F.J.F.J.F.J.F.F.J.F.J.F.J.F.J.F.J.F.J.F.J.F.J.F.J.F.J.F.J.F.J.F.J.                            ",
"                              J.J.J.F.J.F.J.F.J.J.F.J.F.J.F.J.F.J.F.J.F.J.F.J.F.J.F.J.F.J.F.J.J.J.                              ",
"                                  F.J.J.J.F.J.F.F.J.F.J.F.J.F.J.F.J.F.J.F.J.F.J.F.J.F.J.F.J.F.                                  ",
"                                      J.J.F.J.J.J.F.J.F.J.F.J.F.J.F.J.F.J.F.J.F.J.F.J.J.J.                                      ",
"                                          J.F.J.F.J.F.J.F.J.F.J.F.J.F.J.F.J.F.J.J.J.F.                                          ",
"                                                  J.J.F.J.J.J.J.J.F.J.J.J.J.J.                                                  ",
"                                                                                                                                "
};
