/* XPM */
static char *result[] = {
/* columns rows colors chars-per-pixel */
"16 16 47 1 ",
"  c #868D75",
". c #878E76",
"X c #8F947D",
"o c #949882",
"O c #969A83",
"+ c #9D9F8A",
"@ c #A9AA95",
"# c #ACAD98",
"$ c #B2B19D",
"% c #B6B5A1",
"& c #B6B5A2",
"* c #B8B6A2",
"= c #BBB9A5",
"- c #BCBAA7",
"; c #BDBBA7",
": c #BFBCA9",
"> c #C2BFAC",
", c #C7C3B0",
"< c #CCC7B5",
"1 c #CEC8B5",
"2 c #CEC9B7",
"3 c #D2CCBB",
"4 c #D9D2C1",
"5 c #DED7C5",
"6 c #E0D9C7",
"7 c #E0D8C8",
"8 c #E8DFCE",
"9 c #EAE0CF",
"0 c #EEE3D4",
"q c #EEE4D4",
"w c #EFE5D5",
"e c #F0E6D7",
"r c #F4E9D9",
"t c #F4E9DA",
"y c #F6EADB",
"u c #F8ECDD",
"i c #F9EDDD",
"p c #FAEDDD",
"a c #F9EEDD",
"s c #F8EDDE",
"d c #F9EDDE",
"f c #F9EDDF",
"g c #FAEDDE",
"h c #FAEDDF",
"j c #F9EEDE",
"k c #F9EEDF",
"l c None",
/* pixels */
"lllllljddjllllll",
"llllddddddddllll",
"llhddddddddddpll",
"lldddddd,*ddddll",
"ldddddd;#3dddddl",
"ldddduy@=&2ddddl",
"adddd9 7+$wddddi",
"addd5t<:%Oedddda",
"kddd>.y102rddddd",
"fdddd6=-oX4ddddd",
"lddddd5ddddddddl",
"lgdddd8dddddddsl",
"llddddqdddddddll",
"llddddddddddddll",
"llllsddddddsllll",
"llllllddddllllll"
};
